<?xml version="1.0" encoding="iso-8859-1"?>
<!-- Generator: Adobe Illustrator 19.0.0, SVG Export Plug-In . SVG Version: 6.00 Build 0)  -->
<svg version="1.1" id="Layer_1" xmlns="http://www.w3.org/2000/svg" xmlns:xlink="http://www.w3.org/1999/xlink" x="0px" y="0px"
	 viewBox="0 0 310 310" style="enable-background:new 0 0 310 310;" xml:space="preserve">
<g id="XMLID_19_">
	<circle id="XMLID_40_" style="fill:#00D7DF;" cx="57.499" cy="100" r="25"/>
	<circle id="XMLID_39_" style="fill:#006C70;" cx="207.499" cy="100" r="25"/>
	<circle id="XMLID_38_" style="fill:#00D7DF;" cx="57.499" cy="25" r="25"/>
	<circle id="XMLID_37_" style="fill:#00D7DF;" cx="132.499" cy="25" r="25"/>
	<path id="XMLID_36_" style="fill:#006C70;" d="M132.499,0c13.807,0,25,11.193,25,25s-11.193,25-25,25"/>
	<circle id="XMLID_35_" style="fill:#00D7DF;" cx="57.499" cy="175" r="25"/>
	<circle id="XMLID_34_" style="fill:#006C70;" cx="207.499" cy="25" r="25"/>
	<g id="XMLID_20_">
		<path id="XMLID_105_" style="fill:#FFC170;" d="M252.499,170c-5.628,0-10.821,1.861-15,4.999v-1.667c0-13.807-11.193-25-25-25
			c-5.655,0-10.87,1.88-15.058,5.045C196.604,140.328,185.761,130,172.499,130c-5.628,0-10.821,1.861-15,4.999V100
			c0-13.807-11.193-25-25-25s-25,11.193-25,25v130c0,20.501,12.343,38.11,29.999,45.827V310h105.001v-32.292
			c20.285-6.372,35.001-25.32,35.001-47.708v-35C277.5,181.193,266.307,170,252.499,170z"/>
		<path id="XMLID_106_" style="fill:#FFD6A0;" d="M132.167,75.008c-13.653,0.18-24.667,11.297-24.667,24.992v130
			c0,18.365,9.91,34.401,24.667,43.091L132.167,75.008L132.167,75.008z"/>
	</g>
</g>
<g>
</g>
<g>
</g>
<g>
</g>
<g>
</g>
<g>
</g>
<g>
</g>
<g>
</g>
<g>
</g>
<g>
</g>
<g>
</g>
<g>
</g>
<g>
</g>
<g>
</g>
<g>
</g>
<g>
</g>
</svg>
