<?xml version="1.0" encoding="iso-8859-1"?>
<!-- Generator: Adobe Illustrator 19.0.0, SVG Export Plug-In . SVG Version: 6.00 Build 0)  -->
<svg version="1.1" id="Layer_1" xmlns="http://www.w3.org/2000/svg" xmlns:xlink="http://www.w3.org/1999/xlink" x="0px" y="0px"
	 viewBox="0 0 512 512" style="enable-background:new 0 0 512 512;" xml:space="preserve">
<polygon style="fill:#8AE4FF;" points="501.801,77.514 10.199,77.514 10.199,287.053 86.712,210.54 164.163,287.992 
	251.277,167.762 428.835,434.486 501.801,434.486 "/>
<g>
	<polygon style="fill:#FFFFFF;" points="164.163,287.992 310.658,434.486 428.835,434.486 251.277,167.762 	"/>
	<polygon style="fill:#FFFFFF;" points="310.658,434.486 86.712,210.54 10.199,287.053 10.199,434.486 	"/>
</g>
<circle style="fill:#FFB33C;" cx="415.108" cy="168.287" r="41.817"/>
<path d="M0,434.486c0,5.633,4.566,10.199,10.199,10.199h491.602c5.633,0,10.199-4.566,10.199-10.199V77.514
	c0-5.633-4.566-10.199-10.199-10.199H10.199C4.566,67.315,0,71.881,0,77.514V434.486z M20.398,424.287v-133.01l66.313-66.313
	l70.24,70.24c2.111,2.111,5.045,3.188,8.019,2.955c2.976-0.237,5.7-1.764,7.453-4.184l78.499-108.341l158.871,238.653H20.398z
	 M491.602,424.287h-57.304L259.767,162.11c-1.851-2.781-4.948-4.479-8.288-4.546c-3.325-0.06-6.501,1.508-8.461,4.213
	L162.92,272.324l-68.996-68.997c-3.983-3.983-10.441-3.983-14.425,0L20.398,262.43V87.713h471.203V424.287z"/>
<path d="M415.108,220.303c28.682,0,52.016-23.334,52.016-52.016s-23.334-52.016-52.016-52.016
	c-28.682,0-52.016,23.334-52.016,52.016S386.425,220.303,415.108,220.303z M415.108,136.669c17.434,0,31.618,14.184,31.618,31.618
	s-14.184,31.618-31.618,31.618c-17.433,0-31.618-14.184-31.618-31.618S397.674,136.669,415.108,136.669z"/>
<path d="M43.857,122.39h167.267c5.633,0,10.199-4.566,10.199-10.199s-4.566-10.199-10.199-10.199H43.857
	c-5.633,0-10.199,4.566-10.199,10.199S38.224,122.39,43.857,122.39z"/>
<path d="M245.228,122.39h1.593c5.633,0,10.199-4.566,10.199-10.199s-4.566-10.199-10.199-10.199h-1.594
	c-5.633,0-10.199,4.566-10.199,10.199S239.595,122.39,245.228,122.39z"/>
<g>
</g>
<g>
</g>
<g>
</g>
<g>
</g>
<g>
</g>
<g>
</g>
<g>
</g>
<g>
</g>
<g>
</g>
<g>
</g>
<g>
</g>
<g>
</g>
<g>
</g>
<g>
</g>
<g>
</g>
</svg>
